# xmcd
#
# Track frame offsets:
# 150
# 13170
# 32138
# 49480
# 69013
# 88895
# 109678
# 137575
# 156243
# 171915
# 185148
# 204408
# 224050
# 244778
# 263420
# 278108
#
# Disc length: 3760 seconds
#
#
# Revision: 9
# Processed by: cddbd v1.5.2PL0 Copyright (c) Steve Scherf et al.
# Submitted via: FreeRIP 2.945 
#
DISCID=ed0eae10
DTITLE=Michal Tucny - Snidane v trave
DYEAR=1993
DGENRE=Country
TTITLE0=Snidane v trave
TTITLE1=Bajecna zenska
TTITLE2=Tam u nebeskych bran
TTITLE3=Vsichni jsou uz v Mexiku
TTITLE4=Karolina
TTITLE5=Modra z dzin
TTITLE6=Jak chcete zit bez koni
TTITLE7=Poveste ho vejs
TTITLE8=Chtel bych byt medvidkem
TTITLE9=Tak uz nefnukej
TTITLE10=Staryho psa novym kouskum nenaucis
TTITLE11=Medicinman
TTITLE12=Kosmickej vandr
TTITLE13=Dam sbohem rekam
TTITLE14=Spim v obili
TTITLE15=Posledni kovboj
EXTD=Supraphon
EXTT0=
EXTT1=
EXTT2=
EXTT3=
EXTT4=
EXTT5=
EXTT6=
EXTT7=
EXTT8=
EXTT9=
EXTT10=
EXTT11=
EXTT12=
EXTT13=
EXTT14=
EXTT15=
PLAYORDER=
